<svg xmlns="http://www.w3.org/2000/svg" width="1500" height="930" viewBox="0 0 1500 930"><defs><marker id="arrow" markerWidth="12" markerHeight="12" refX="10" refY="6" orient="auto"><path d="M1 1L11 6 1 11" fill="none" stroke="#375d4d" stroke-width="2"/></marker><style>.title{font:600 32px Arial;fill:#19392c}.label{font:600 20px Arial;fill:#19392c}.small{font:15px Arial;fill:#42574a}.tiny{font:13px Arial;fill:#53665b}.box{fill:#fffefa;stroke:#b5c6b8;stroke-width:2;rx:16}.aws{fill:#f4f7ef;stroke:#809b85;stroke-width:3;rx:24}.arrow{fill:none;stroke:#375d4d;stroke-width:3;marker-end:url(#arrow)}.dash{fill:none;stroke:#83998a;stroke-width:2;stroke-dasharray:7 7}</style></defs><rect width="1500" height="930" fill="#fbfaf6"/><text x="70" y="70" class="title">Northstar LMS · AWS reference architecture</text><text x="70" y="103" class="small">Student and administrator workflows · private data tier · monitored application tier</text><rect x="62" y="145" width="1376" height="705" class="aws"/><text x="92" y="186" class="label">AWS Cloud · ap-south-1 (configurable)</text><rect x="95" y="215" width="190" height="115" class="box"/><text x="120" y="254" class="label">Students</text><text x="120" y="284" class="small">Browser / HTTPS*</text><text x="120" y="308" class="tiny">Register · learn · submit</text><rect x="95" y="390" width="190" height="115" class="box"/><text x="120" y="429" class="label">Administrators</text><text x="120" y="459" class="small">Browser / HTTPS*</text><text x="120" y="483" class="tiny">Publish content</text><rect x="350" y="205" width="1000" height="600" fill="none" stroke="#a9b8ac" stroke-width="2" stroke-dasharray="10 8" rx="24"/><text x="380" y="242" class="label">VPC · public application subnet + private database subnets</text><rect x="405" y="295" width="250" height="195" class="box"/><text x="435" y="334" class="label">EC2 application</text><text x="435" y="366" class="small">Docker · Flask · Gunicorn</text><text x="435" y="394" class="small">Student and admin portals</text><text x="435" y="422" class="small">IAM instance profile</text><text x="435" y="458" class="tiny">Security group: web ingress</text><rect x="760" y="295" width="225" height="195" class="box"/><text x="790" y="334" class="label">S3 bucket</text><text x="790" y="366" class="small">Course materials</text><text x="790" y="394" class="small">Assignment uploads</text><text x="790" y="422" class="small">Private · SSE-S3</text><text x="790" y="458" class="tiny">Short-lived signed downloads</text><rect x="1080" y="295" width="220" height="195" class="box"/><text x="1110" y="334" class="label">RDS PostgreSQL</text><text x="1110" y="366" class="small">Private subnets</text><text x="1110" y="394" class="small">Automated backups</text><text x="1110" y="422" class="small">Encryption at rest</text><text x="1110" y="458" class="tiny">Ingress only from EC2 SG</text><rect x="760" y="570" width="225" height="140" class="box"/><text x="790" y="610" class="label">CloudWatch Logs</text><text x="790" y="642" class="small">Application stdout/stderr</text><text x="790" y="670" class="tiny">Retention configured</text><rect x="1080" y="570" width="220" height="140" class="box"/><text x="1110" y="610" class="label">GitHub Actions</text><text x="1110" y="642" class="small">CI · deployment workflow</text><text x="1110" y="670" class="tiny">SSH deploy key (scoped)</text><path d="M285 270H395" class="arrow"/><path d="M285 447H355Q380 447 405 420" class="arrow"/><path d="M655 354H750" class="arrow"/><path d="M655 420H1070" class="arrow"/><path d="M530 490V610H750" class="arrow"/><path d="M1190 640H1000V540H530V500" class="arrow"/><text x="302" y="253" class="tiny">HTTP 80 demo / HTTPS via ALB*</text><text x="675" y="342" class="tiny">IAM role</text><text x="855" y="515" class="tiny">TLS in transit</text><text x="95" y="895" class="tiny">* Assignment demo provisions HTTP on EC2. Add an Application Load Balancer and ACM certificate before production. VPC egress / NAT is omitted from diagram for clarity.</text></svg>
